<svg width="800" height="800" viewBox="0 0 800 800" fill="none" xmlns="http://www.w3.org/2000/svg">
  <defs>
    <radialGradient id="glowLight" cx="0" cy="0" r="1" gradientUnits="userSpaceOnUse" gradientTransform="translate(400 400) rotate(90) scale(292)">
      <stop stop-color="#D6DDE5" stop-opacity="0.46"/>
      <stop offset="0.55" stop-color="#D6DDE5" stop-opacity="0.12"/>
      <stop offset="1" stop-color="#D6DDE5" stop-opacity="0"/>
    </radialGradient>
    <filter id="blurLight" x="80" y="80" width="640" height="640" filterUnits="userSpaceOnUse">
      <feGaussianBlur stdDeviation="24"/>
    </filter>
    <filter id="nodeGlowLight" x="-40" y="-40" width="880" height="880" filterUnits="userSpaceOnUse">
      <feGaussianBlur stdDeviation="8"/>
    </filter>
  </defs>
  <style>
    @keyframes drift {
      0%, 100% { transform: translateY(0px) scale(1); }
      50% { transform: translateY(-10px) scale(1.015); }
    }
    @keyframes pulse {
      0%, 100% { opacity: 0.34; }
      50% { opacity: 0.78; }
    }
    .mesh {
      transform-origin: 400px 400px;
      animation: drift 18s ease-in-out infinite;
    }
    .spark {
      animation: pulse 6s ease-in-out infinite;
    }
  </style>

  <circle cx="400" cy="400" r="238" fill="url(#glowLight)" filter="url(#blurLight)"/>

  <g class="mesh">
    <circle cx="400" cy="400" r="230" stroke="#A7B2BE" stroke-opacity="0.16"/>
    <ellipse cx="400" cy="400" rx="226" ry="198" stroke="#A7B2BE" stroke-opacity="0.12"/>
    <ellipse cx="400" cy="400" rx="198" ry="226" stroke="#A7B2BE" stroke-opacity="0.1"/>

    <g stroke="#6B7785" stroke-opacity="0.42" stroke-width="1.2">
      <path d="M221 316L291 246L400 221L509 246L579 316L609 400L579 484L509 554L400 579L291 554L221 484L191 400L221 316Z"/>
      <path d="M245 351L310 292L400 273L490 292L555 351L579 430L544 501L476 545L400 557L324 545L256 501L221 430L245 351Z"/>
      <path d="M291 246L310 292L324 545L291 554L221 316L245 351"/>
      <path d="M509 246L490 292L476 545L509 554L579 316L555 351"/>
      <path d="M191 400L221 430L579 430L609 400"/>
      <path d="M400 221L400 273L400 557L400 579"/>
      <path d="M221 316L310 292L490 292L579 316"/>
      <path d="M221 484L324 545L476 545L579 484"/>
      <path d="M291 246L400 273L509 246"/>
      <path d="M291 554L400 557L509 554"/>
      <path d="M245 351L400 273L555 351"/>
      <path d="M221 430L400 557L579 430"/>
      <path d="M245 351L256 501"/>
      <path d="M555 351L544 501"/>
      <path d="M310 292L476 545"/>
      <path d="M490 292L324 545"/>
      <path d="M191 400L310 292L490 292L609 400"/>
      <path d="M221 316L400 400L579 316"/>
      <path d="M221 484L400 400L579 484"/>
      <path d="M245 351L400 400L555 351"/>
      <path d="M221 430L400 400L579 430"/>
      <path d="M256 501L400 400L544 501"/>
    </g>

    <g stroke="#8E98A5" stroke-opacity="0.2" stroke-width="0.9">
      <path d="M255 304L350 258L450 258L545 304L589 400L545 496L450 542L350 542L255 496L211 400L255 304Z"/>
      <path d="M255 304L450 542"/>
      <path d="M545 304L350 542"/>
      <path d="M211 400L589 400"/>
      <path d="M350 258L545 496"/>
      <path d="M450 258L255 496"/>
      <path d="M255 304L400 400L545 304"/>
      <path d="M255 496L400 400L545 496"/>
      <path d="M310 292L346 338L392 314L454 347L490 292"/>
      <path d="M310 292L318 391L337 518"/>
      <path d="M490 292L470 386L458 528"/>
      <path d="M346 338L332 454L371 487"/>
      <path d="M454 347L468 432L437 478"/>
      <path d="M392 314L414 395L406 486"/>
      <path d="M318 391L414 395L470 386"/>
      <path d="M332 454L414 395L468 432"/>
      <path d="M371 487L406 486L437 478"/>
      <path d="M286 357L346 338"/>
      <path d="M514 357L454 347"/>
      <path d="M286 443L371 487"/>
      <path d="M514 443L437 478"/>
      <path d="M352 333L414 395"/>
      <path d="M447 399L392 314"/>
    </g>

    <g fill="#596470">
      <circle cx="221" cy="316" r="4.8"/>
      <circle cx="291" cy="246" r="4.6"/>
      <circle cx="400" cy="221" r="5"/>
      <circle cx="509" cy="246" r="4.6"/>
      <circle cx="579" cy="316" r="4.8"/>
      <circle cx="609" cy="400" r="5"/>
      <circle cx="579" cy="484" r="4.8"/>
      <circle cx="509" cy="554" r="4.6"/>
      <circle cx="400" cy="579" r="5"/>
      <circle cx="291" cy="554" r="4.6"/>
      <circle cx="221" cy="484" r="4.8"/>
      <circle cx="191" cy="400" r="5"/>
      <circle cx="245" cy="351" r="4.4"/>
      <circle cx="310" cy="292" r="4.4"/>
      <circle cx="400" cy="273" r="4.6"/>
      <circle cx="490" cy="292" r="4.4"/>
      <circle cx="555" cy="351" r="4.4"/>
      <circle cx="579" cy="430" r="4.4"/>
      <circle cx="544" cy="501" r="4.4"/>
      <circle cx="476" cy="545" r="4.4"/>
      <circle cx="400" cy="557" r="4.6"/>
      <circle cx="324" cy="545" r="4.4"/>
      <circle cx="256" cy="501" r="4.4"/>
      <circle cx="221" cy="430" r="4.4"/>
      <circle cx="400" cy="400" r="4.8"/>
      <circle cx="255" cy="304" r="3.8"/>
      <circle cx="350" cy="258" r="3.8"/>
      <circle cx="450" cy="258" r="3.8"/>
      <circle cx="545" cy="304" r="3.8"/>
      <circle cx="589" cy="400" r="3.8"/>
      <circle cx="545" cy="496" r="3.8"/>
      <circle cx="450" cy="542" r="3.8"/>
      <circle cx="350" cy="542" r="3.8"/>
      <circle cx="255" cy="496" r="3.8"/>
      <circle cx="211" cy="400" r="3.8"/>
      <circle cx="346" cy="338" r="3.6"/>
      <circle cx="392" cy="314" r="3.6"/>
      <circle cx="454" cy="347" r="3.6"/>
      <circle cx="318" cy="391" r="3.6"/>
      <circle cx="470" cy="386" r="3.6"/>
      <circle cx="332" cy="454" r="3.6"/>
      <circle cx="468" cy="432" r="3.6"/>
      <circle cx="371" cy="487" r="3.6"/>
      <circle cx="406" cy="486" r="3.6"/>
      <circle cx="437" cy="478" r="3.6"/>
      <circle cx="286" cy="357" r="3.4"/>
      <circle cx="514" cy="357" r="3.4"/>
      <circle cx="286" cy="443" r="3.4"/>
      <circle cx="514" cy="443" r="3.4"/>
    </g>

    <g filter="url(#nodeGlowLight)">
      <g class="spark" fill="#6F7D8A">
        <circle cx="400" cy="221" r="9" fill-opacity="0.18"/>
        <circle cx="609" cy="400" r="9" fill-opacity="0.18" style="animation-delay: 0.9s"/>
        <circle cx="400" cy="579" r="9" fill-opacity="0.18" style="animation-delay: 1.8s"/>
        <circle cx="191" cy="400" r="9" fill-opacity="0.18" style="animation-delay: 2.7s"/>
        <circle cx="400" cy="400" r="10" fill-opacity="0.22" style="animation-delay: 1.3s"/>
        <circle cx="310" cy="292" r="7.2" fill-opacity="0.16" style="animation-delay: 2.1s"/>
        <circle cx="490" cy="292" r="7.2" fill-opacity="0.16" style="animation-delay: 3.4s"/>
        <circle cx="324" cy="545" r="7.2" fill-opacity="0.16" style="animation-delay: 1.1s"/>
        <circle cx="476" cy="545" r="7.2" fill-opacity="0.16" style="animation-delay: 2.9s"/>
        <circle cx="392" cy="314" r="6.5" fill-opacity="0.14" style="animation-delay: 2.4s"/>
        <circle cx="318" cy="391" r="6" fill-opacity="0.12" style="animation-delay: 1.4s"/>
        <circle cx="470" cy="386" r="6" fill-opacity="0.12" style="animation-delay: 3.1s"/>
        <circle cx="406" cy="486" r="6.5" fill-opacity="0.14" style="animation-delay: 2.8s"/>
      </g>
    </g>

    <g fill="#AAB3BD" fill-opacity="0.18">
      <circle cx="363" cy="362" r="2.8"/>
      <circle cx="438" cy="369" r="2.8"/>
      <circle cx="351" cy="412" r="2.8"/>
      <circle cx="446" cy="404" r="2.8"/>
      <circle cx="379" cy="437" r="2.8"/>
      <circle cx="426" cy="452" r="2.8"/>
      <circle cx="396" cy="355" r="2.8"/>
      <circle cx="391" cy="448" r="2.8"/>
    </g>
  </g>
</svg>
